<svg xmlns="http://www.w3.org/2000/svg" version="1.1" xmlns:xlink="http://www.w3.org/1999/xlink" xmlns:svgjs="http://svgjs.com/svgjs" width="800" height="560" preserveAspectRatio="none" viewBox="0 0 800 560"><g mask="url(&quot;#SvgjsMask1893&quot;)" fill="none"><rect width="800" height="560" x="0" y="0" fill="url(#SvgjsLinearGradient1894)"></rect><path d="M-60.72 -13.94 a46.78 46.78 0 1 0 93.56 0 a46.78 46.78 0 1 0 -93.56 0z" fill="rgba(44, 184, 94, 0.15)" class="triangle-float1"></path><path d="M89.345,208.817C131.114,207.814,169.656,183.866,188.284,146.468C205.244,112.42,192.125,73.927,172.877,41.118C153.93,8.823,126.786,-22.541,89.345,-22.177C52.333,-21.817,28.072,11.25,8.582,42.717C-12.479,76.72,-35.668,115.454,-18.178,151.424C0.863,190.584,45.814,209.862,89.345,208.817" fill="rgba(44, 184, 94, 0.15)" class="triangle-float2"></path><path d="M78.678,181.126C117.773,182.574,158.376,169.856,178.625,136.382C199.48,101.906,196.301,57.194,173.906,23.698C153.633,-6.624,115.15,-12.667,78.678,-13.111C41.122,-13.568,-0.935,-10.637,-20.649,21.332C-41.032,54.386,-29.719,96.444,-9.218,129.425C10.015,160.367,42.271,179.778,78.678,181.126" fill="rgba(44, 184, 94, 0.15)" class="triangle-float1"></path><path d="M584.7 28.64 a131.94 131.94 0 1 0 263.88 0 a131.94 131.94 0 1 0 -263.88 0z" fill="rgba(44, 184, 94, 0.15)" class="triangle-float2"></path><path d="M771.307,183.173C807.622,184.901,842.788,166.557,860.992,135.087C879.221,103.574,877.115,64.239,858.042,33.23C839.841,3.64,806.038,-9.971,771.307,-10.719C734.986,-11.501,695.387,-2.466,677.849,29.349C660.706,60.447,676.839,96.855,695.277,127.203C712.791,156.029,737.616,181.57,771.307,183.173" fill="rgba(44, 184, 94, 0.15)" class="triangle-float2"></path><path d="M745.261,132.831C771.583,131.084,794.918,116.384,807.592,93.248C819.773,71.012,818.173,44.439,805.811,22.303C793.105,-0.45,771.319,-18.027,745.261,-18.371C718.668,-18.722,696.358,-1.64,681.878,20.667C665.671,45.634,652.096,76.681,666.74,102.596C681.529,128.767,715.266,134.822,745.261,132.831" fill="rgba(44, 184, 94, 0.15)" class="triangle-float1"></path><path d="M-78.54 451.87 a82.41 82.41 0 1 0 164.82 0 a82.41 82.41 0 1 0 -164.82 0z" fill="rgba(44, 184, 94, 0.15)" class="triangle-float3"></path><path d="M143.945,767.688C204.691,769.893,259.313,728.566,285.908,673.907C309.726,624.957,291.503,569.581,262.863,523.287C236.044,479.936,194.896,446.042,143.945,444.437C90.233,442.745,37.895,468.665,11.3,515.362C-15.051,561.63,-6.001,617.08,18.775,664.211C45.773,715.568,85.962,765.583,143.945,767.688" fill="rgba(44, 184, 94, 0.15)" class="triangle-float1"></path><path d="M32.535,532.677C53.471,534.084,75.995,529.805,87.637,512.348C100.416,493.184,101.553,467.253,89.074,447.892C77.398,429.776,54.088,426.811,32.535,426.854C11.085,426.897,-13.235,429.345,-23.615,448.116C-33.806,466.545,-22.723,488.168,-11.074,505.712C-0.941,520.972,14.258,531.448,32.535,532.677" fill="rgba(44, 184, 94, 0.15)" class="triangle-float3"></path><path d="M732.581,564.118C757.718,563.576,779.289,548.569,792.472,527.159C806.43,504.49,814.238,476.176,800.923,453.123C787.611,430.075,759.149,421.869,732.581,423.468C708.791,424.9,689.503,440.197,677.141,460.573C664.194,481.913,656.261,507.838,668.043,529.842C680.366,552.858,706.48,564.681,732.581,564.118" fill="rgba(44, 184, 94, 0.15)" class="triangle-float1"></path><path d="M795.042,665.016C835.143,663.279,874.04,647,894.276,612.335C914.67,577.4,910.034,535.282,891.876,499.135C871.282,458.138,840.833,417.628,795.042,414.792C745.307,411.712,699.203,442.177,674.936,485.699C651.271,528.14,652.67,581.255,679.712,621.628C704.211,658.204,751.06,666.921,795.042,665.016" fill="rgba(44, 184, 94, 0.15)" class="triangle-float1"></path><path d="M596.23 465.1 a108.87 108.87 0 1 0 217.74 0 a108.87 108.87 0 1 0 -217.74 0z" fill="rgba(44, 184, 94, 0.15)" class="triangle-float2"></path></g><defs><mask id="SvgjsMask1893"><rect width="800" height="560" fill="#ffffff"></rect></mask><linearGradient x1="50%" y1="100%" x2="50%" y2="0%" gradientUnits="userSpaceOnUse" id="SvgjsLinearGradient1894"><stop stop-color="rgba(255, 255, 255, 1)" offset="0.73"></stop><stop stop-color="rgba(44, 184, 94, 1)" offset="1"></stop></linearGradient><style>
            @keyframes float1 {
                0%{transform: translate(0, 0)}
                50%{transform: translate(-10px, 0)}
                100%{transform: translate(0, 0)}
            }

            .triangle-float1 {
                animation: float1 5s infinite;
            }

            @keyframes float2 {
                0%{transform: translate(0, 0)}
                50%{transform: translate(-5px, -5px)}
                100%{transform: translate(0, 0)}
            }

            .triangle-float2 {
                animation: float2 4s infinite;
            }

            @keyframes float3 {
                0%{transform: translate(0, 0)}
                50%{transform: translate(0, -10px)}
                100%{transform: translate(0, 0)}
            }

            .triangle-float3 {
                animation: float3 6s infinite;
            }
        </style></defs></svg>